# xmcd
#
# Track frame offsets:
#	150
#	21025
#	39112
#	55947
#	71605
#	89180
#	107400
#	122047
#	138852
#	157915
#
# Disc length: 2303 seconds
#
# Revision: 1
# Processed by: cddbd v1.4PL0 Copyright (c) Steve Scherf et al.
# Submitted via: audiograbber 1.81.01
#
DISCID=7a08fd0a
DTITLE=Alvin Lee - Detroit Diesel
DYEAR=1988
DGENRE=Blues
TTITLE0=Detroit Diesel
TTITLE1=Shot In The Dark
TTITLE2=Too Late To Run Foe Cover
TTITLE3=Talk Don't Bother Me
TTITLE4=Ordinary Man
TTITLE5=Heart Of Stone
TTITLE6=She S So Cute
TTITLE7=Back In My Arms Again
TTITLE8=Don T Want To Fight
TTITLE9=Let S Go
EXTD=
EXTT0=
EXTT1=
EXTT2=
EXTT3=
EXTT4=
EXTT5=
EXTT6=
EXTT7=
EXTT8=
EXTT9=
PLAYORDER=
